<?xml version="1.0" encoding="UTF-8"?>
<svg version="1.1" xmlns="http://www.w3.org/2000/svg" width="1540" height="786">
<path d="M0 0 C508.2 0 1016.4 0 1540 0 C1540 259.38 1540 518.76 1540 786 C1031.8 786 523.6 786 0 786 C0 526.62 0 267.24 0 0 Z " fill="#FEFEFE" transform="translate(0,0)"/>
<path d="M0 0 C0 38.28 0 76.56 0 116 C40.26 116 80.52 116 122 116 C122 119.96 122 123.92 122 128 C125.86010159 127.32800889 129.71969248 126.65370242 133.57836914 125.97363281 C135.52900829 125.63088485 137.48031992 125.2919712 139.43164062 124.953125 C140.67236328 124.73398437 141.91308594 124.51484375 143.19140625 124.2890625 C144.32779541 124.09006348 145.46418457 123.89106445 146.63500977 123.68603516 C150.15518683 122.96836139 153.55039222 121.99869022 157 121 C158.39363474 120.71910186 159.79327171 120.46470112 161.19921875 120.25390625 C161.9269751 120.14046875 162.65473145 120.02703125 163.40454102 119.91015625 C164.15791748 119.79542969 164.91129395 119.68070312 165.6875 119.5625 C171.87247843 118.58002141 177.87331105 117.34726409 183.9296875 115.73828125 C187.49106768 114.88191884 191.07550806 114.2797066 194.6875 113.6875 C203.20414925 112.27758271 211.54911094 110.26006974 219.91870117 108.15698242 C226.01963004 106.64167739 232.08578669 105.4124129 238.30297852 104.47460938 C240.9815145 104.00325299 243.52018709 103.33898588 246.125 102.5625 C250.86441811 101.19966303 255.57394085 100.37420575 260.4375 99.625 C266.94724536 98.61467878 273.25762852 97.24725199 279.625 95.5625 C288.154393 93.31539617 296.7089156 91.75133968 305.42822266 90.43188477 C310.34119064 89.67471761 315.12108993 88.76116289 319.93359375 87.5078125 C326.09485006 85.91340421 332.26814197 84.90876784 338.5625 84 C340.88029581 83.65684031 343.19800393 83.31308784 345.515625 82.96875 C346.63388672 82.80375 347.75214844 82.63875 348.90429688 82.46875 C351.4785827 82.07895278 354.04420036 81.66365834 356.609375 81.21875 C372.79420725 78.42884317 389.16662921 76.9340196 405.49652386 75.2576046 C407.09767441 75.09284819 408.6987426 74.92728816 410.29970264 74.76069069 C447.10961831 70.93335849 483.69764586 69.54111092 520.69744873 69.73571777 C525.05009306 69.75490434 529.40269598 69.75884503 533.75537682 69.76255035 C556.85332726 69.78434642 579.92227025 69.97388736 603 71 C601.28974534 74.66434951 599.24002076 76.9345589 596.3125 79.75 C593.24992786 82.74685171 590.27824592 85.73771601 587.5 89 C584.01787024 93.07343481 580.22444574 96.79035118 576.4140625 100.5546875 C573.71248706 103.29123479 571.20921265 106.14979366 568.7109375 109.0703125 C566.25426881 111.84107582 563.60640023 114.402929 560.96875 117 C559.06013545 118.93891002 557.27289448 120.93699551 555.5 123 C553.10323412 125.78896393 550.62040609 128.41990785 548 131 C542.26758031 136.65480472 537.12024917 142.79363738 532 149 C533.010625 149.061875 534.02125 149.12375 535.0625 149.1875 C548.57572165 150.9396584 560.94176331 156.68367488 570 167 C570.47953125 167.53753906 570.9590625 168.07507813 571.453125 168.62890625 C580.31136317 179.34379535 583.33757542 193.42979272 583.22705078 207.01782227 C583.22734283 207.97498642 583.22763489 208.93215057 583.22793579 209.9183197 C583.2265534 213.05111063 583.21104389 216.18365738 583.1953125 219.31640625 C583.19157849 221.50072601 583.18873335 223.68504746 583.18673706 225.86936951 C583.17913117 231.59531343 583.15950897 237.32115456 583.1373291 243.04705811 C583.11680491 248.89919647 583.10772132 254.75135158 583.09765625 260.60351562 C583.07626007 272.06906266 583.04110289 283.53450666 583 295 C575.41 295.33 567.82 295.66 560 296 C570.26399751 304.97560255 570.26399751 304.97560255 580.75 313.6875 C585.45335263 317.49065606 589.89477081 321.52920588 594.33984375 325.62890625 C597.57142722 328.50933381 600.94684314 331.13906889 604.41796875 333.72265625 C605.20107422 334.35494141 605.20107422 334.35494141 606 335 C606 335.33 606 335.66 606 336 C605.35381368 335.99815641 604.70762735 335.99631283 604.04185963 335.99441338 C588.12293539 335.94972621 572.20403375 335.91690168 556.28506184 335.89637566 C548.58593254 335.88617887 540.88684619 335.87229173 533.18774414 335.84912109 C477.09264157 335.54619735 477.09264157 335.54619735 421.171875 339.57421875 C417.78830249 339.94385926 414.41513785 340.14849779 411.01342773 340.29077148 C396.73400013 340.88812841 381.86617177 342.51096194 368 346 C366.19076523 346.19044577 364.3811568 346.37821909 362.56958008 346.54492188 C352.70950103 347.46632208 343.09849829 349.2453133 333.39257812 351.18261719 C327.72508542 352.3064873 322.11347819 353.32868197 316.375 354 C301.17798485 355.84572148 286.19308667 359.69043682 271.29077148 363.12426758 C263.54591835 364.90055917 255.77265284 366.51961482 247.98950195 368.1184082 C240.15641491 369.73625641 232.35608794 371.47725644 224.56835938 373.30078125 C219.27632612 374.52863119 213.97616753 375.56718212 208.62719727 376.51538086 C204.8497486 377.21217815 201.11618833 378.06997807 197.375 378.9375 C190.69752021 380.45927214 184.01372412 381.72580851 177.25976562 382.85302734 C172.39197727 383.69031406 167.64868343 384.80003827 162.875 386.0625 C156.57620887 387.72250352 150.34337118 388.67685682 143.87890625 389.4453125 C139.70425246 390.0422922 135.6646155 390.91311836 131.5625 391.875 C124.43420546 393.54072899 117.28974627 394.83931592 110.0625 396 C102.72482314 397.17858759 95.44716599 398.471101 88.1875 400.0625 C81.2492172 401.57999748 74.30742435 402.83008705 67.28198242 403.87329102 C62.97779114 404.51505337 58.70051581 405.23936889 54.42216492 406.03749084 C43.19431184 408.10784567 31.90756911 409.38572684 20.5625 410.625 C18.6047637 410.84326608 16.64708104 411.06201394 14.68945312 411.28125 C5.451935 412.31122159 5.451935 412.31122159 1.42160034 412.73805237 C-0.14486943 412.90749942 -1.71021198 413.08787695 -3.27389526 413.28135681 C-11.25216885 414.2095396 -19.24469883 414.2001465 -27.265625 414.23828125 C-28.04241041 414.24308376 -28.81919582 414.24788628 -29.61952019 414.25283432 C-35.49634037 414.28873826 -41.3730822 414.30434271 -47.25 414.3125 C-48.10874851 414.31409245 -48.96749702 414.31568489 -49.85226822 414.31732559 C-98.23958667 414.39374 -154.45775726 413.06831203 -198.24633789 389.86694336 C-200.28586314 388.81425472 -200.28586314 388.81425472 -203.75 387.6875 C-217.04645237 382.8548012 -230.24147761 373.61948743 -237.07310295 361.02105427 C-238.4573474 356.50935837 -238.26771843 352.14550633 -238.24050903 347.45219421 C-238.24221788 346.37803137 -238.24392673 345.30386853 -238.24568737 344.1971553 C-238.24898593 340.59189995 -238.23797234 336.98683004 -238.22705078 333.3815918 C-238.22648675 330.79960637 -238.22680307 328.21762062 -238.22793579 325.63563538 C-238.22898416 320.07374331 -238.22271256 314.51189819 -238.21146011 308.95001793 C-238.1952016 300.9084937 -238.18999675 292.86699215 -238.18748413 284.82545326 C-238.18310758 271.77839803 -238.16979956 258.73136782 -238.15087891 245.68432617 C-238.13251908 233.01082484 -238.11836307 220.33733031 -238.10986328 207.66381836 C-238.10933783 206.88253914 -238.10881239 206.10125991 -238.10827102 205.29630556 C-238.10566093 201.37683211 -238.10313352 197.4573586 -238.10064721 193.53788507 C-238.07991595 161.0252385 -238.04469151 128.5126226 -238 96 C-234.50097081 99.46940665 -231.30164116 102.9899504 -228.234375 106.83984375 C-222.07566533 112.87688032 -222.07566533 112.87688032 -214.01464844 115.15405273 C-211.83211409 114.97450451 -209.6511945 114.77442655 -207.47216797 114.55639648 C-200.35204831 113.92809173 -193.15087396 113.42333982 -187.36621094 118.15380859 C-182.25563159 124.26512876 -178.62499392 131.29501427 -174.97265625 138.33398438 C-171.87197776 144.22558403 -168.08457344 149.6659828 -164.375 155.1875 C-162.9723016 157.32879385 -161.57254223 159.47201596 -160.17578125 161.6171875 C-157.35005576 165.9416953 -154.51282428 170.25836748 -151.66796875 174.5703125 C-150.97719238 175.62065674 -150.28641602 176.67100098 -149.57470703 177.75317383 C-148.26807682 179.73975272 -146.95804756 181.72410166 -145.64404297 183.70581055 C-144.77030029 185.03672729 -144.77030029 185.03672729 -143.87890625 186.39453125 C-143.3691626 187.16643799 -142.85941895 187.93834473 -142.33422852 188.73364258 C-140.94797348 191.08837369 -139.94860394 193.44111334 -139 196 C-138.34 196 -137.68 196 -137 196 C-136.72470459 195.26749023 -136.44940918 194.53498047 -136.16577148 193.78027344 C-135.07135531 191.17017681 -133.84116903 188.91416349 -132.34765625 186.515625 C-131.82437744 185.67201416 -131.30109863 184.82840332 -130.76196289 183.95922852 C-130.20114014 183.06518311 -129.64031738 182.1711377 -129.0625 181.25 C-128.47911865 180.31406006 -127.8957373 179.37812012 -127.29467773 178.41381836 C-123.33744731 172.08364933 -119.31863316 165.7955527 -115.24536133 159.53955078 C-109.66534856 150.96934501 -104.19507131 142.32926042 -98.71289062 133.69628906 C-95.81143108 129.12905429 -92.90563093 124.56458172 -90 120 C-90.62229492 119.93006836 -91.24458984 119.86013672 -91.88574219 119.78808594 C-103.72899612 118.43643384 -115.43300758 116.88569425 -127.09814453 114.41333008 C-131.93347722 113.39249393 -136.72333235 112.57133633 -141.625 111.9375 C-146.45060433 111.29898327 -150.87900545 110.28732188 -155.49389648 108.75488281 C-157.87194054 108.03857378 -160.17659681 107.56212471 -162.62109375 107.13671875 C-168.22396851 106.04344967 -173.4649525 104.28790704 -178.8125 102.3125 C-179.77446289 101.95800781 -180.73642578 101.60351562 -181.72753906 101.23828125 C-197.18800494 95.41003427 -211.5886928 87.77104146 -220.12890625 73.0546875 C-222.1215059 68.35465425 -221.70384424 63.23795133 -220.1953125 58.44140625 C-215.40777388 47.85929501 -206.51292411 41.17096548 -197 35 C-196.35546875 34.56042969 -195.7109375 34.12085938 -195.046875 33.66796875 C-181.20467153 24.50768704 -164.77640253 19.32746728 -148.984375 14.59521484 C-147.04983012 14.01494659 -145.11860962 13.42363143 -143.1875 12.83203125 C-137.53246099 11.14405086 -132.18390107 9.73200685 -126.30078125 9.26953125 C-123.50460923 8.94196611 -120.85931722 8.29568158 -118.125 7.625 C-109.47088811 5.58290716 -100.80920557 4.17623756 -92 3 C-91.00452148 2.86029785 -90.00904297 2.7205957 -88.98339844 2.57666016 C-59.48722185 -1.39415157 -29.68330649 -0.19877214 0 0 Z " fill="#F3EA51" transform="translate(605,187)"/>
<path d="M0 0 C0 38.28 0 76.56 0 116 C-5.94 116 -11.88 116 -18 116 C-18 126.89 -18 137.78 -18 149 C-39.45 149 -60.9 149 -83 149 C-77.37463675 138.87434616 -77.37463675 138.87434616 -74.73828125 134.8515625 C-74.17689453 133.99175781 -73.61550781 133.13195312 -73.03710938 132.24609375 C-72.46798828 131.38113281 -71.89886719 130.51617187 -71.3125 129.625 C-70.73177734 128.73683594 -70.15105469 127.84867187 -69.55273438 126.93359375 C-67.38072136 123.61405478 -65.20049338 120.30074008 -63 117 C-71.25 116.67 -79.5 116.34 -88 116 C-88.33 116.99 -88.66 117.98 -89 119 C-102.22079891 118.63629164 -115.03684262 116.7508661 -128.05908203 114.50537109 C-130.71325407 114.04927479 -133.36938948 113.60917262 -136.02734375 113.17578125 C-142.68081152 112.0731984 -149.17143181 110.85306779 -155.58886719 108.72363281 C-157.92855137 108.02144327 -160.20471404 107.56017007 -162.609375 107.140625 C-168.21597099 106.04513075 -173.46110974 104.28932657 -178.8125 102.3125 C-179.77446289 101.95800781 -180.73642578 101.60351562 -181.72753906 101.23828125 C-197.18800494 95.41003427 -211.5886928 87.77104146 -220.12890625 73.0546875 C-222.1215059 68.35465425 -221.70384424 63.23795133 -220.1953125 58.44140625 C-215.40777388 47.85929501 -206.51292411 41.17096548 -197 35 C-196.35546875 34.56042969 -195.7109375 34.12085938 -195.046875 33.66796875 C-181.20467153 24.50768704 -164.77640253 19.32746728 -148.984375 14.59521484 C-147.04983012 14.01494659 -145.11860962 13.42363143 -143.1875 12.83203125 C-137.53246099 11.14405086 -132.18390107 9.73200685 -126.30078125 9.26953125 C-123.50460923 8.94196611 -120.85931722 8.29568158 -118.125 7.625 C-109.47088811 5.58290716 -100.80920557 4.17623756 -92 3 C-91.00452148 2.86029785 -90.00904297 2.7205957 -88.98339844 2.57666016 C-59.48722185 -1.39415157 -29.68330649 -0.19877214 0 0 Z " fill="#F4EB52" transform="translate(605,187)"/>
<path d="M0 0 C5.5565159 5.31456551 9.73132399 10.83966807 13.2265625 17.67578125 C13.60425781 18.3925 13.98195313 19.10921875 14.37109375 19.84765625 C21.9475547 35.39784576 21.2265625 52.78560828 21.2265625 69.67578125 C-16.0634375 69.67578125 -53.3534375 69.67578125 -91.7734375 69.67578125 C-87.00181806 81.12766792 -83.75566532 88.49548511 -72.7734375 93.67578125 C-67.47781138 95.39349555 -61.76387942 94.93860565 -56.25854492 94.97094727 C-54.90589886 94.98239807 -53.55329548 95.00273931 -52.20092773 95.0324707 C-40.70521361 95.28467475 -30.90837958 94.15171935 -22.11328125 86.23828125 C-20.44166619 84.41679749 -20.44166619 84.41679749 -18.7734375 80.67578125 C-6.5634375 80.67578125 5.6465625 80.67578125 18.2265625 80.67578125 C16.5581079 94.02341809 10.036913 108.13686626 -0.7734375 116.67578125 C-20.96980295 131.10175657 -45.87756174 134.83204755 -70.2734375 131.109375 C-73.50129339 130.43336571 -76.62069036 129.63862306 -79.7734375 128.67578125 C-80.5571875 128.47082031 -81.3409375 128.26585937 -82.1484375 128.0546875 C-98.49459083 123.35516842 -110.45711209 113.20340113 -118.7734375 98.67578125 C-129.58130337 76.92595689 -130.14081315 48.29103004 -122.70703125 25.390625 C-120.0343692 18.41347754 -116.32639379 12.56784233 -111.7734375 6.67578125 C-111.13535156 5.75539063 -111.13535156 5.75539063 -110.484375 4.81640625 C-102.5504898 -5.79455678 -89.14496625 -11.0850286 -76.7734375 -14.32421875 C-75.85949219 -14.56914062 -74.94554687 -14.8140625 -74.00390625 -15.06640625 C-49.31060607 -20.34491551 -19.71925169 -16.52528839 0 0 Z " fill="#010100" transform="translate(850.7734375,351.32421875)"/>
<path d="M0 0 C11.88 0 23.76 0 36 0 C36 14.52 36 29.04 36 44 C38.64 42.02 41.28 40.04 44 38 C53.81586904 32.95183878 63.28680768 31.62389984 74.25 31.6875 C75.25853027 31.69241455 76.26706055 31.6973291 77.30615234 31.70239258 C85.23351497 31.8263172 92.38969628 32.64375116 100 35 C101.10472656 35.3403125 102.20945312 35.680625 103.34765625 36.03125 C115.9264243 40.38600479 125.33079989 47.37437163 132 59 C136.89793536 69.48308104 139.32078798 79.49366103 139.22705078 91.01782227 C139.22734283 91.97498642 139.22763489 92.93215057 139.22793579 93.9183197 C139.2265534 97.05111063 139.21104389 100.18365738 139.1953125 103.31640625 C139.19157849 105.50072601 139.18873335 107.68504746 139.18673706 109.86936951 C139.17913117 115.59531343 139.15950897 121.32115456 139.1373291 127.04705811 C139.11680491 132.89919647 139.10772132 138.75135158 139.09765625 144.60351562 C139.07626007 156.06906266 139.04110289 167.53450666 139 179 C127.12 179 115.24 179 103 179 C102.98541748 176.45764648 102.97083496 173.91529297 102.95581055 171.29589844 C102.90527779 162.85805369 102.83865062 154.42038987 102.76428509 145.98272324 C102.71972262 140.87131097 102.68043598 135.75997582 102.65356445 130.6484375 C102.62738982 125.70752299 102.58688908 120.76690753 102.53681374 115.8261795 C102.52024021 113.94936111 102.50866711 112.07249111 102.50238609 110.19561005 C102.62685289 91.08734335 102.62685289 91.08734335 95 74 C87.54467078 68.43835853 79.98532083 68.7513303 71.11401367 68.70483398 C69.58852846 68.6933447 68.06308248 68.67294118 66.5378418 68.64331055 C54.63676616 68.24437683 54.63676616 68.24437683 44 73 C34.8230091 83.07649514 36.53011085 98.75550148 36.48828125 111.51953125 C36.47140313 113.47394414 36.45324876 115.42834638 36.43388367 117.38273621 C36.38671751 122.48382233 36.35669338 127.58486528 36.33044434 132.68609619 C36.30046888 137.90865605 36.25399763 143.13106756 36.20898438 148.35351562 C36.12333172 158.56894916 36.05734669 168.78436832 36 179 C24.12 179 12.24 179 0 179 C0 119.93 0 60.86 0 0 Z " fill="#020201" transform="translate(1049,303)"/>
<path d="M0 0 C7.43726833 6.98737686 12.88612453 16.31042022 15.69140625 26.12890625 C15.71755286 27.79536781 15.72077788 29.46249841 15.69140625 31.12890625 C10.53207458 31.30251192 5.37445715 31.42922992 0.21289062 31.51342773 C-1.54099148 31.54853774 -3.29467003 31.59623995 -5.04785156 31.65698242 C-7.5753807 31.74233315 -10.10019452 31.78168421 -12.62890625 31.8125 C-13.40726837 31.848629 -14.18563049 31.884758 -14.98757935 31.92198181 C-18.37742535 31.92440277 -20.46433202 31.85892971 -23.09100342 29.587677 C-24.69091797 27.69946289 -24.69091797 27.69946289 -26.05099487 25.81312561 C-28.77107334 22.17030364 -33.11275879 20.54393781 -37.30859375 19.12890625 C-41.94562438 18.73708161 -46.58429977 18.7572893 -51.2355957 18.75830078 C-53.47230633 18.75395249 -55.70700055 18.71767132 -57.94335938 18.6796875 C-68.03193189 18.59900818 -76.59313055 19.39323649 -84.24609375 26.56640625 C-91.98261946 35.13637501 -93.81777339 44.27295325 -93.68359375 55.56640625 C-93.69519531 56.53900391 -93.70679688 57.51160156 -93.71875 58.51367188 C-93.67664435 69.01903107 -91.19278119 78.03805225 -84.30859375 86.12890625 C-76.20340737 93.68404006 -68.44590687 94.50213414 -57.64282227 94.49951172 C-55.64387593 94.50385673 -53.64508702 94.54080466 -51.64648438 94.578125 C-40.87272853 94.61039786 -31.83661113 93.05876052 -23.6484375 85.69140625 C-21.97682244 83.86992249 -21.97682244 83.86992249 -20.30859375 80.12890625 C-8.09859375 80.12890625 4.11140625 80.12890625 16.69140625 80.12890625 C15.02295165 93.47654309 8.50175675 107.58999126 -2.30859375 116.12890625 C-22.5049592 130.55488157 -47.41271799 134.28517255 -71.80859375 130.5625 C-75.03644964 129.88649071 -78.15584661 129.09174806 -81.30859375 128.12890625 C-82.09234375 127.92394531 -82.87609375 127.71898437 -83.68359375 127.5078125 C-100.02974708 122.80829342 -111.99226834 112.65652613 -120.30859375 98.12890625 C-131.08141949 76.44959687 -131.79428751 47.68101601 -124.2421875 24.9140625 C-121.56379584 17.90427839 -117.88182723 12.0472084 -113.30859375 6.12890625 C-112.67050781 5.20851563 -112.67050781 5.20851563 -112.01953125 4.26953125 C-104.08564605 -6.34143178 -90.6801225 -11.6319036 -78.30859375 -14.87109375 C-77.39464844 -15.11601562 -76.48070312 -15.3609375 -75.5390625 -15.61328125 C-50.08302286 -21.05483584 -20.52900857 -16.6385704 0 0 Z " fill="#010100" transform="translate(1016.30859375,351.87109375)"/>
<path d="M0 0 C8.28584614 -1.68813502 16.87169608 -2.85194899 25 0 C31.93800085 5.73853204 35.85812453 14.45851327 39.99511719 22.31787109 C43.13235883 28.1995725 46.91378691 33.6560871 50.625 39.1875 C52.02754565 41.32889391 53.42730317 43.47211664 54.82421875 45.6171875 C57.64994424 49.9416953 60.48717572 54.25836748 63.33203125 58.5703125 C64.02280762 59.62065674 64.71358398 60.67100098 65.42529297 61.75317383 C66.73192318 63.73975272 68.04195244 65.72410166 69.35595703 67.70581055 C69.93845215 68.59308838 70.52094727 69.48036621 71.12109375 70.39453125 C71.6308374 71.16643799 72.14058105 71.93834473 72.66577148 72.73364258 C74.05202652 75.08837369 75.05139606 77.44111334 76 80 C76.66 80 77.32 80 78 80 C78.27529541 79.26749023 78.55059082 78.53498047 78.83422852 77.78027344 C79.92864469 75.17017681 81.15883097 72.91416349 82.65234375 70.515625 C83.17562256 69.67201416 83.69890137 68.82840332 84.23803711 67.95922852 C84.79885986 67.06518311 85.35968262 66.1711377 85.9375 65.25 C86.52088135 64.31406006 87.1042627 63.37812012 87.70532227 62.41381836 C92.10172427 55.38113013 96.58535443 48.40801737 101.109375 41.45703125 C114.83682584 21.19023501 114.83682584 21.19023501 127 0 C135.58 0 144.16 0 153 0 C150.61123298 4.18034228 148.26534416 8.23974576 145.671875 12.2734375 C145.04539062 13.24990234 144.41890625 14.22636719 143.7734375 15.23242188 C143.10570312 16.26947266 142.43796875 17.30652344 141.75 18.375 C140.67511434 20.04934113 139.6002313 21.72368396 138.5255127 23.39813232 C137.41531304 25.12740859 136.30438657 26.85621626 135.19335938 28.58496094 C131.7880104 33.88513104 128.3947322 39.19302663 125 44.5 C123.67060497 46.57684343 122.34117777 48.65366628 121.01171875 50.73046875 C118.30404622 54.96100034 115.59855737 59.19291814 112.89453125 63.42578125 C112.21068359 64.49570312 111.52683594 65.565625 110.82226562 66.66796875 C109.55341339 68.65324775 108.28511023 70.63887788 107.01757812 72.625 C106.42009766 73.55957031 105.82261719 74.49414062 105.20703125 75.45703125 C104.58094971 76.48231934 103.95486816 77.50760742 103.30981445 78.56396484 C101.63164599 81.20131341 99.73636305 83.47625983 97.66479492 85.81494141 C84.51832009 101.63156532 86.26488421 119.58786941 86.64379883 139.06756592 C86.71731433 143.58004214 86.71548152 148.09248833 86.72070312 152.60546875 C86.74163337 161.40555647 86.85076452 170.20115251 87 179 C80.07 179 73.14 179 66 179 C65.77276491 168.5849419 65.58987777 158.17156806 65.48187828 147.75457764 C65.43000522 142.91584121 65.35982347 138.0789091 65.24560547 133.24121094 C65.13578321 128.55961792 65.0769201 123.87974354 65.05122757 119.19696045 C65.03295462 117.42361429 64.99727704 115.65034687 64.94269943 113.87774658 C64.53844327 100.18533458 67.67571257 91.8808601 76 81 C74.90081993 81.1477462 74.90081993 81.1477462 73.7794342 81.29847717 C55.85546374 83.59664801 55.85546374 83.59664801 49.92724609 79.60400391 C46.19428755 75.56242786 43.85707643 70.6530575 41.43554688 65.75488281 C38.89133209 60.87241348 35.74834747 56.3815516 32.6875 51.8125 C31.41365539 49.86264104 30.14284856 47.91079431 28.875 45.95703125 C28.23820312 44.97814941 27.60140625 43.99926758 26.9453125 42.99072266 C26.30335938 42.00378418 25.66140625 41.0168457 25 40 C22.39696867 35.99925964 19.79266638 31.99935036 17.1875 28 C16.56697754 27.04625488 15.94645508 26.09250977 15.30712891 25.10986328 C12.51072851 20.8186679 9.70141158 16.53841875 6.8359375 12.29296875 C6.36260986 11.59107422 5.88928223 10.88917969 5.40161133 10.16601562 C4.53596988 8.88704419 3.66628327 7.61079722 2.79174805 6.33789062 C0 2.21802943 0 2.21802943 0 0 Z " fill="#214AB7" transform="translate(390,303)"/>
<path d="M0 0 C46.2 0 92.4 0 140 0 C140 11.88 140 23.76 140 36 C93.8 36 47.6 36 0 36 C0 24.12 0 12.24 0 0 Z " fill="#010101" transform="translate(587,303)"/>
<path d="M0 0 C2.23010995 0.00849889 4.45764293 -0.02028034 6.6875 -0.05200195 C16.04096565 -0.09835155 23.64445492 0.49870794 30.7421875 7.13354492 C35.84128237 15.08213398 36.99640355 23.69171127 36.98071289 33.01196289 C36.98085892 33.74435684 36.98100494 34.47675079 36.9811554 35.2313385 C36.980463 37.63366741 36.97270232 40.03591718 36.96484375 42.43823242 C36.96297718 44.11117511 36.9615544 45.78411834 36.96055603 47.45706177 C36.95674969 51.84645107 36.94693558 56.23580695 36.93585205 60.62518311 C36.92559735 65.10973661 36.92104973 69.59429555 36.91601562 74.07885742 C36.90531153 82.86793521 36.88825785 91.6569859 36.8671875 100.44604492 C33.23317173 98.73481928 30.74081647 96.64670605 27.8046875 93.88354492 C24.11355291 90.45069663 20.36308491 87.166664 16.4296875 84.00854492 C11.89402307 80.35033478 7.6101758 76.49861527 3.34790039 72.53222656 C-0.73195183 68.75805034 -4.99719151 65.26165311 -9.328125 61.77807617 C-13.49682406 58.31190161 -17.44489924 54.6262658 -21.40625 50.92651367 C-23.99317149 48.38144845 -23.99317149 48.38144845 -26.95703125 46.88354492 C-30.68578995 42.70626408 -29.72829513 37.63305209 -29.5703125 32.25854492 C-29.56451172 31.15961914 -29.55871094 30.06069336 -29.55273438 28.9284668 C-29.29913315 11.91689671 -29.29913315 11.91689671 -24.4453125 6.57104492 C-23.98769531 6.03737305 -23.53007813 5.50370117 -23.05859375 4.95385742 C-16.11659611 -0.48145919 -8.39087912 -0.04876278 0 0 Z " fill="#FEFEFE" transform="translate(1115.1328125,370.553955078125)"/>
<path d="M0 0 C0 46.2 0 92.4 0 140 C-11.55 140 -23.1 140 -35 140 C-35.77682647 126.76723567 -36.39638362 113.55020387 -36.76161385 100.29956245 C-36.93717696 94.14193415 -37.17364155 88.00101794 -37.56494141 81.85302734 C-40.26657307 38.29388198 -40.26657307 38.29388198 -27.31542969 22.96777344 C-6.54982738 0 -6.54982738 0 0 0 Z " fill="#2049B8" transform="translate(675,341)"/>
<path d="M0 0 C8.28584614 -1.68813502 16.87169608 -2.85194899 25 0 C31.93800085 5.73853204 35.85812453 14.45851327 39.99511719 22.31787109 C43.13235294 28.19956144 46.91369778 33.65615975 50.625 39.1875 C52.02888575 41.33017049 53.42994612 43.47469494 54.828125 45.62109375 C57.64412184 49.93036216 60.46793811 54.23437275 63.296875 58.53515625 C63.98313965 59.58098877 64.6694043 60.62682129 65.37646484 61.7043457 C66.67106635 63.67724502 67.96811319 65.64854277 69.26806641 67.61791992 C72.1257644 71.97918836 74.8185352 76.2604146 77 81 C56.27265589 83.81334021 56.27265589 83.81334021 49.87988281 79.60400391 C46.12163779 75.58104771 43.81333437 70.66750601 41.41943359 65.75488281 C38.89832485 60.8618331 35.74975798 56.37842364 32.6875 51.8125 C31.41354076 49.86271593 30.14273459 47.91086826 28.875 45.95703125 C28.23820312 44.97814941 27.60140625 43.99926758 26.9453125 42.99072266 C26.30335938 42.00378418 25.66140625 41.0168457 25 40 C22.39696867 35.99925964 19.79266638 31.99935036 17.1875 28 C16.56697754 27.04625488 15.94645508 26.09250977 15.30712891 25.10986328 C12.51072851 20.8186679 9.70141158 16.53841875 6.8359375 12.29296875 C6.36260986 11.59107422 5.88928223 10.88917969 5.40161133 10.16601562 C4.53596988 8.88704419 3.66628327 7.61079722 2.79174805 6.33789062 C0 2.21802943 0 2.21802943 0 0 Z " fill="#030301" transform="translate(390,303)"/>
<path d="M0 0 C5.47926644 1.35141041 10.95480749 2.70287862 16.39453125 4.20703125 C27.19681416 7.17449255 37.91952927 9.37573335 49 11 C50.90652344 11.29197266 50.90652344 11.29197266 52.8515625 11.58984375 C59.88546228 12.63956518 66.90952736 13.45012661 74 14 C70.31604436 20.55060986 66.46255131 26.90544337 62.25 33.125 C57.3852694 40.31318402 52.84227232 47.67762782 48.34765625 55.1015625 C47.93918457 55.77477539 47.53071289 56.44798828 47.10986328 57.14160156 C46.14789294 58.75236228 45.22457806 60.38608911 44.30859375 62.0234375 C43.87675781 62.67570312 43.44492187 63.32796875 43 64 C42.34 64 41.68 64 41 64 C39.41121097 61.67486836 37.94322272 59.35132238 36.5 56.9375 C35.58910291 55.44677649 34.67629927 53.95721651 33.76171875 52.46875 C33.29813965 51.71335937 32.83456055 50.95796875 32.35693359 50.1796875 C30.41002802 47.05230841 28.37194617 43.99151634 26.3125 40.9375 C21.9099467 34.3856123 17.56884386 27.79487171 13.25 21.1875 C12.62391846 20.23286865 11.99783691 19.2782373 11.3527832 18.29467773 C7.4249836 12.27796731 3.64876261 6.1899253 0 0 Z " fill="#F1E952" transform="translate(425,319)"/>
<path d="M0 0 C0.85049423 0.00222061 1.70098846 0.00444122 2.57725525 0.00672913 C4.01863609 0.00684242 4.01863609 0.00684242 5.48913574 0.00695801 C7.05630592 0.01469994 7.05630592 0.01469994 8.65513611 0.02259827 C9.71913132 0.02401321 10.78312653 0.02542816 11.87936401 0.02688599 C15.29293069 0.03250388 18.70643286 0.04505941 22.11997986 0.05775452 C24.42792162 0.06276721 26.73586441 0.06733052 29.04380798 0.07142639 C34.71507707 0.08163019 40.38620586 0.10120208 46.05747986 0.12025452 C46.05747986 9.03025452 46.05747986 17.94025452 46.05747986 27.12025452 C24.60747986 27.12025452 3.15747986 27.12025452 -18.94252014 27.12025452 C-13.31357126 16.98814653 -13.31357126 16.98814653 -11.08314514 13.55775452 C-10.60748108 12.82427795 -10.13181702 12.09080139 -9.64173889 11.33509827 C-9.1634967 10.60419983 -8.68525452 9.87330139 -8.19252014 9.12025452 C-7.6988092 8.35841858 -7.20509827 7.59658264 -6.69642639 6.81166077 C-2.35963826 0.14607682 -2.35963826 0.14607682 0 0 Z " fill="#FEFEFD" transform="translate(540.9425201416016,308.87974548339844)"/>
<path d="M0 0 C2.19310625 0.01389894 4.38195679 -0.02034063 6.57470703 -0.05834961 C16.37736833 -0.11364603 23.69353843 1.34656182 31.35205078 7.82250977 C31.96048828 8.54567383 32.56892578 9.26883789 33.19580078 10.01391602 C33.82486328 10.73450195 34.45392578 11.45508789 35.10205078 12.19750977 C36.69580078 14.57641602 36.69580078 14.57641602 38.69580078 20.57641602 C13.94580078 20.57641602 -10.80419922 20.57641602 -36.30419922 20.57641602 C-31.71799232 11.40400222 -31.71799232 11.40400222 -28.67919922 8.32641602 C-28.08880859 7.70250977 -27.49841797 7.07860352 -26.89013672 6.43579102 C-18.56660701 0.45089654 -9.92356021 -0.0876718 0 0 Z " fill="#F1E850" transform="translate(796.30419921875,369.423583984375)"/>
<path d="M0 0 C-0.33 0.66 -0.66 1.32 -1 2 C-1.99 2.33 -2.98 2.66 -4 3 C-5.71452342 4.69153744 -5.71452342 4.69153744 -7.375 6.75 C-10.12534216 9.99668841 -12.94652216 13.03905179 -16 16 C-15.77582332 10.50767127 -14.51696482 7.54717967 -10.7578125 3.515625 C-7.78849165 0.95541057 -3.83904582 -1.91952291 0 0 Z " fill="#E5DD5B" transform="translate(1103,372)"/>
</svg>
